<svg width="202" height="57" viewBox="0 0 202 57" fill="none" xmlns="http://www.w3.org/2000/svg">
<rect x="1" y="1" width="200" height="55" rx="4" stroke="url(#paint0_linear_69_5704)" stroke-width="2"/>
<path d="M54 18C48.475 18 44 22.475 44 28C43.9989 30.0993 44.6588 32.1456 45.8862 33.8487C47.1136 35.5517 48.8461 36.8251 50.838 37.488C51.338 37.575 51.525 37.275 51.525 37.012C51.525 36.775 51.512 35.988 51.512 35.15C49 35.613 48.35 34.538 48.15 33.975C48.037 33.687 47.55 32.8 47.125 32.562C46.775 32.375 46.275 31.912 47.112 31.9C47.9 31.887 48.462 32.625 48.65 32.925C49.55 34.437 50.988 34.012 51.562 33.75C51.65 33.1 51.912 32.663 52.2 32.413C49.975 32.163 47.65 31.3 47.65 27.475C47.65 26.387 48.037 25.488 48.675 24.787C48.575 24.537 48.225 23.512 48.775 22.137C48.775 22.137 49.612 21.875 51.525 23.163C52.3391 22.9371 53.1802 22.8233 54.025 22.825C54.875 22.825 55.725 22.937 56.525 23.162C58.437 21.862 59.275 22.138 59.275 22.138C59.825 23.513 59.475 24.538 59.375 24.788C60.012 25.488 60.4 26.375 60.4 27.475C60.4 31.313 58.063 32.163 55.838 32.413C56.2 32.725 56.513 33.325 56.513 34.263C56.513 35.6 56.5 36.675 56.5 37.013C56.5 37.275 56.688 37.587 57.188 37.487C59.173 36.8168 60.8979 35.541 62.1199 33.8392C63.3419 32.1373 63.9994 30.0951 64 28C64 22.475 59.525 18 54 18Z" fill="white"/>
<defs>
<linearGradient id="paint0_linear_69_5704" x1="-14.9292" y1="5.03333" x2="18.0205" y2="114.175" gradientUnits="userSpaceOnUse">
<stop stop-color="#D24074"/>
<stop offset="1" stop-color="#6518B4"/>
</linearGradient>
</defs>
</svg>
