<svg width="202" height="57" viewBox="0 0 202 57" fill="none" xmlns="http://www.w3.org/2000/svg">
<rect x="1" y="1" width="200" height="55" rx="4" stroke="url(#paint0_linear_69_5695)" stroke-width="2"/>
<path d="M45 22.001C44.9997 22.5314 44.7888 23.04 44.4135 23.4149C44.0382 23.7898 43.5294 24.0003 42.999 24C42.4686 23.9997 41.96 23.7888 41.5851 23.4135C41.2102 23.0382 40.9997 22.5294 41 21.999C41.0003 21.4686 41.2112 20.96 41.5865 20.5851C41.9618 20.2102 42.4706 19.9997 43.001 20C43.5314 20.0003 44.04 20.2112 44.4149 20.5865C44.7898 20.9618 45.0003 21.4706 45 22.001ZM45.06 25.481H41.06V38.001H45.06V25.481ZM51.38 25.481H47.4V38.001H51.34V31.431C51.34 27.771 56.11 27.431 56.11 31.431V38.001H60.06V30.071C60.06 23.901 53 24.131 51.34 27.161L51.38 25.481Z" fill="white"/>
<defs>
<linearGradient id="paint0_linear_69_5695" x1="-90.3566" y1="29.2923" x2="-63.0437" y2="128.612" gradientUnits="userSpaceOnUse">
<stop stop-color="#6964DE"/>
<stop offset="1" stop-color="#FCA6E9"/>
</linearGradient>
</defs>
</svg>
